<svg width="21" height="22" viewBox="0 0 21 22" fill="none" xmlns="http://www.w3.org/2000/svg">
<path d="M7.98437 19.3415L0.612495 11.6415C0.524995 11.5499 0.46287 11.4506 0.42612 11.3436C0.38937 11.2367 0.371287 11.1221 0.37187 10.9999C0.37187 10.8776 0.390245 10.7631 0.426995 10.6561C0.463745 10.5492 0.525579 10.4499 0.612495 10.3582L7.98437 2.63529C8.18854 2.4214 8.44375 2.31445 8.75 2.31445C9.05625 2.31445 9.31875 2.42904 9.5375 2.6582C9.75625 2.88737 9.86562 3.15473 9.86562 3.46029C9.86562 3.76584 9.75625 4.0332 9.5375 4.26237L3.10625 10.9999L9.5375 17.7374C9.74166 17.9513 9.84375 18.215 9.84375 18.5285C9.84375 18.842 9.73437 19.113 9.51562 19.3415C9.29687 19.5707 9.04166 19.6853 8.75 19.6853C8.45833 19.6853 8.20312 19.5707 7.98437 19.3415Z" fill="black"/>
</svg>
