<svg width="11" height="17" viewBox="0 0 11 17" fill="none" xmlns="http://www.w3.org/2000/svg">
<path d="M2.17972 0.336414L10.7212 7.87203C10.8226 7.96174 10.8945 8.05893 10.9371 8.16359C10.9797 8.26825 11.0007 8.38039 11 8.5C11 8.61961 10.9787 8.73175 10.9361 8.83641C10.8935 8.94107 10.8219 9.03826 10.7212 9.12797L2.17972 16.686C1.94316 16.8953 1.64746 17 1.29262 17C0.937784 17 0.633637 16.8879 0.380181 16.6636C0.126726 16.4393 -1.83546e-06 16.1777 -1.80932e-06 15.8786C-1.78317e-06 15.5796 0.126726 15.3179 0.380181 15.0937L7.83179 8.5L0.380183 1.90633C0.143624 1.69701 0.0253443 1.43895 0.0253443 1.13214C0.0253444 0.825332 0.152072 0.56009 0.405529 0.336413C0.658984 0.112138 0.954683 1.02916e-06 1.29262 1.0587e-06C1.63057 1.08825e-06 1.92626 0.112138 2.17972 0.336414Z" fill="#141414"/>
</svg>
