<svg width="12" height="12" viewBox="0 0 12 12" fill="none" xmlns="http://www.w3.org/2000/svg">
<path fill-rule="evenodd" clip-rule="evenodd" d="M10.5242 6.98116C10.9384 6.98106 11.2743 6.6452 11.2744 6.23098C11.2745 5.81677 10.9388 5.48106 10.5246 5.48116L6.74911 5.48204L6.74999 1.70657C6.75009 1.29235 6.41438 0.956646 6.00017 0.956743C5.58595 0.95684 5.25009 1.2927 5.24999 1.70692L5.24911 5.48239L1.47249 5.48327C1.05828 5.48337 0.722412 5.81923 0.722315 6.23345C0.722218 6.64766 1.05793 6.98337 1.47214 6.98327L5.24876 6.98239L5.24788 10.759C5.24778 11.1732 5.58349 11.5089 5.9977 11.5088C6.41192 11.5087 6.74778 11.1729 6.74788 10.7587L6.74876 6.98204L10.5242 6.98116Z" fill="#141414"/>
</svg>
